<?xml version="1.0" encoding="utf-8"?>
<!-- Generator: Adobe Illustrator 21.1.0, SVG Export Plug-In . SVG Version: 6.00 Build 0)  -->
<svg version="1.1" id="Layer_1" xmlns="http://www.w3.org/2000/svg" xmlns:xlink="http://www.w3.org/1999/xlink" x="0px" y="0px"
	 viewBox="0 0 400 300" style="enable-background:new 0 0 400 300;" xml:space="preserve">
<style type="text/css">
	.st0{fill:#5C9FC4;}
	.st1{fill:#F2BB40;}
	.st2{fill:none;stroke:#000000;stroke-width:0.2;}
	.st3{font-family:'ArialMT';}
	.st4{font-size:8.8814px;}
	.st5{font-family:'Arial-BoldMT';}
	.st6{font-size:6px;}
	.st7{font-family:'Arial-ItalicMT';}
	.st8{font-size:8.7261px;}
	.st9{fill:none;}
</style>
<defs  xmlns="http://www.w3.org/1999/xhtml">
	<style  type="text/css">
		<![CDATA[]]>
	</style>
</defs>
<g transform="translate(50,20)">
	<g>
		<rect x="10.2" y="35.6" class="st0" width="76.3" height="214.9"/>
		<rect x="95.4" y="40.9" class="st0" width="76.3" height="209.6"/>
		<rect x="180.6" y="50.7" class="st0" width="76.3" height="199.8"/>
	</g>
	<g>
		<rect x="10.2" y="28.5" class="st1" width="76.3" height="7.1"/>
		<rect x="95.4" y="28.5" class="st1" width="76.3" height="12.4"/>
		<rect x="180.6" y="28.5" class="st1" width="76.3" height="22.2"/>
	</g>
	<g transform="translate(0,250)">
		<g transform="translate(54,0)">
			<line class="st2" x1="-5.6" y1="0.5" x2="-5.6" y2="5.8"/>
			<text transform="matrix(0.9994 0 0 1 -15.4762 14.8157)" class="st3 st4">2014</text>
			<text transform="matrix(0.9994 0 0 1 -15.4762 14.8157)" class="st2 st3 st4">2014</text>
		</g>
		<g transform="translate(150,0)">
			<line class="st2" x1="-16.4" y1="0.5" x2="-16.4" y2="5.8"/>
			<text transform="matrix(0.9994 0 0 1 -26.2692 14.8157)" class="st3 st4">2015</text>
			<text transform="matrix(0.9994 0 0 1 -26.2692 14.8157)" class="st2 st3 st4">2015</text>
		</g>
		<g transform="translate(246,0)">
			<line class="st2" x1="-27.2" y1="0.5" x2="-27.2" y2="5.8"/>
			<text transform="matrix(0.9994 0 0 1 -37.0616 14.8157)" class="st3 st4">2016</text>
			<text transform="matrix(0.9994 0 0 1 -37.0616 14.8157)" class="st2 st3 st4">2016</text>
		</g>
		<path class="st2" d="M0.5,5.8V0.5h266.3v5.3"/>
	</g>
</g>
<g>
	<rect x="316.7" y="170.6" class="st1" width="11.7" height="8.4"/>
	<rect x="316.7" y="179" class="st0" width="11.7" height="8.4"/>
</g>
<text transform="matrix(1 0 0 1 331.2069 176.7843)" class="st5 st6">Industry</text>
<text transform="matrix(1 0 0 1 331.2068 185.6605)" class="st5 st6">Other</text>
<text transform="matrix(1.0057 0 0 1 93.0671 44.7717)" class="st7 st8">3%</text>
<text transform="matrix(1.0057 0 0 1 177.625 45.7452)" class="st7 st8">6%</text>
<text transform="matrix(1.0057 0 0 1 260.561 44.7717)" class="st7 st8">10%</text>
<text transform="matrix(1.0057 0 0 1 90.1462 125.4298)" class="st7 st8">97%</text>
<text transform="matrix(1.0057 0 0 1 177.6248 125.4299)" class="st7 st8">94%</text>
<text transform="matrix(1.0057 0 0 1 262.1835 125.4298)" class="st7 st8">90%</text>
<line class="st9" x1="98.4" y1="48.5" x2="98.4" y2="136"/>
<line class="st9" x1="98.4" y1="48.5" x2="98.4" y2="70.7"/>
</svg>
